<?xml version="1.0" encoding="UTF-8" standalone="no"?>
<!-- Created with Inkscape (http://www.inkscape.org/) -->

<svg
   xmlns:dc="http://purl.org/dc/elements/1.1/"
   xmlns:cc="http://creativecommons.org/ns#"
   xmlns:rdf="http://www.w3.org/1999/02/22-rdf-syntax-ns#"
   xmlns:svg="http://www.w3.org/2000/svg"
   xmlns="http://www.w3.org/2000/svg"
   xmlns:sodipodi="http://sodipodi.sourceforge.net/DTD/sodipodi-0.dtd"
   xmlns:inkscape="http://www.inkscape.org/namespaces/inkscape"
   width="300"
   height="60"
   viewBox="0 0 79.374998 15.875"
   version="1.1"
   id="svg8"
   inkscape:version="0.92.4 (5da689c313, 2019-01-14)"
   sodipodi:docname="logo vectorisé.svg">
  <defs
     id="defs2" />
  <sodipodi:namedview
     id="base"
     pagecolor="#ffffff"
     bordercolor="#666666"
     borderopacity="1.0"
     inkscape:pageopacity="0"
     inkscape:pageshadow="2"
     inkscape:zoom="1.979899"
     inkscape:cx="184.1457"
     inkscape:cy="66.89396"
     inkscape:document-units="mm"
     inkscape:current-layer="layer1"
     showgrid="false"
     units="px"
     inkscape:pagecheckerboard="true"
     inkscape:window-width="1920"
     inkscape:window-height="1017"
     inkscape:window-x="-8"
     inkscape:window-y="-8"
     inkscape:window-maximized="1" />
  <metadata
     id="metadata5">
    <rdf:RDF>
      <cc:Work
         rdf:about="">
        <dc:format>image/svg+xml</dc:format>
        <dc:type
           rdf:resource="http://purl.org/dc/dcmitype/StillImage" />
        <dc:title></dc:title>
      </cc:Work>
    </rdf:RDF>
  </metadata>
  <g
     inkscape:label="Calque 1"
     inkscape:groupmode="layer"
     id="layer1"
     transform="translate(0,-281.12498)">
    <g
       aria-label="Idea Box"
       style="font-style:normal;font-variant:normal;font-weight:bold;font-stretch:semi-condensed;font-size:10.58333302px;line-height:1.25;font-family:Roboto;-inkscape-font-specification:'Roboto Bold';letter-spacing:0px;word-spacing:0px;fill:#ffffff;fill-opacity:1;stroke:none;stroke-width:0.26458332"
       id="text3715">
      <path
         d="M 8.557771,289.69226 H 7.0488192 v -7.52409 H 8.557771 Z"
         style="font-style:normal;font-variant:normal;font-weight:bold;font-stretch:normal;font-family:Roboto;-inkscape-font-specification:'Roboto Bold';letter-spacing:0.26458332px;stroke-width:0.26458332"
         id="path11" />
      <path
         d="m 9.9644035,286.94307 q 0,-1.32291 0.5684405,-2.13423 0.573609,-0.81132 1.612305,-0.81132 0.418579,0 0.754476,0.18087 0.335897,0.18086 0.589111,0.51676 v -3.06441 h 1.51412 v 8.06152 h -1.286744 l -0.129191,-0.6873 q -0.263549,0.38758 -0.625284,0.59428 -0.361735,0.20154 -0.826823,0.20154 -1.028361,0 -1.60197,-0.75447 -0.5684405,-0.75448 -0.5684405,-1.99471 z m 1.5037845,0.10853 q 0,0.7338 0.248047,1.15755 0.248046,0.41858 0.806152,0.41858 0.325561,0 0.568441,-0.12919 0.242879,-0.13436 0.397908,-0.38758 v -2.38228 q -0.155029,-0.26355 -0.397908,-0.40825 -0.237712,-0.14986 -0.558106,-0.14986 -0.552938,0 -0.81132,0.49093 -0.253214,0.49093 -0.253214,1.28157 z"
         style="font-style:normal;font-variant:normal;font-weight:bold;font-stretch:normal;font-family:Roboto;-inkscape-font-specification:'Roboto Bold';letter-spacing:0.26458332px;stroke-width:0.26458332"
         id="path13" />
      <path
         d="m 18.858951,289.80078 q -1.25057,0 -1.953369,-0.76481 -0.7028,-0.76998 -0.7028,-1.97921 v -0.2067 q 0,-1.25574 0.682129,-2.05672 0.682129,-0.80099 1.875855,-0.79582 1.126546,0 1.725992,0.69246 0.604615,0.6873 0.604615,1.85519 v 0.78031 h -3.33313 l -0.0155,0.031 q 0.03617,0.5736 0.346232,0.93017 0.315226,0.35657 0.930176,0.35657 0.506429,0 0.857829,-0.10335 0.356567,-0.10336 0.733805,-0.31523 l 0.408244,0.93018 q -0.335897,0.27388 -0.909506,0.45992 -0.573608,0.18603 -1.250569,0.18603 z m -0.09819,-4.64054 q -0.454753,0 -0.7028,0.31522 -0.242879,0.31006 -0.294555,0.82683 l 0.01033,0.0258 h 1.839681 v -0.11369 q 0,-0.49093 -0.201538,-0.76998 -0.201538,-0.28422 -0.651123,-0.28422 z"
         style="font-style:normal;font-variant:normal;font-weight:bold;font-stretch:normal;font-family:Roboto;-inkscape-font-specification:'Roboto Bold';letter-spacing:0.26458332px;stroke-width:0.26458332"
         id="path15" />
      <path
         d="m 25.536579,289.69226 q -0.08268,-0.1912 -0.144694,-0.40308 -0.05684,-0.21187 -0.08268,-0.43408 -0.232544,0.40825 -0.61495,0.67696 -0.382405,0.26872 -0.909505,0.26872 -0.878499,0 -1.353922,-0.44958 -0.475424,-0.45476 -0.475424,-1.23507 0,-0.82166 0.630453,-1.27124 0.63562,-0.45475 1.850016,-0.45475 h 0.847494 v -0.44442 q 0,-0.40308 -0.211874,-0.62529 -0.211873,-0.2222 -0.630452,-0.2222 -0.366903,0 -0.568441,0.18086 -0.19637,0.1757 -0.19637,0.48576 H 22.22412 l -0.01033,-0.031 q -0.03617,-0.70797 0.614949,-1.21957 0.656291,-0.51676 1.71049,-0.51676 1.00769,0 1.627807,0.50643 0.625285,0.50643 0.625285,1.4521 v 2.30994 q 0,0.39274 0.05684,0.73897 0.06201,0.34624 0.191203,0.6873 z m -1.379761,-1.00769 q 0.392741,0 0.7028,-0.19637 0.310058,-0.19637 0.423747,-0.45475 v -0.79065 h -0.847494 q -0.480591,0 -0.728638,0.23771 -0.242879,0.23771 -0.242879,0.58394 0,0.28422 0.180868,0.45476 0.186035,0.16536 0.511596,0.16536 z"
         style="font-style:normal;font-variant:normal;font-weight:bold;font-stretch:normal;font-family:Roboto;-inkscape-font-specification:'Roboto Bold';letter-spacing:0.26458332px;stroke-width:0.26458332"
         id="path17" />
      <path
         d="m 31.212718,289.69226 v -7.52409 h 2.464966 q 1.328084,0 2.072225,0.52193 0.744141,0.51677 0.744141,1.53996 0,0.51677 -0.268718,0.92501 -0.268717,0.40824 -0.785482,0.61495 0.7028,0.12919 1.059367,0.60978 0.356568,0.48059 0.356568,1.12138 0,1.08004 -0.713135,1.63814 -0.713135,0.55294 -2.020549,0.55294 z m 1.508952,-3.32796 v 2.17041 h 1.400431 q 0.599447,0 0.914673,-0.25838 0.315226,-0.26355 0.315226,-0.77515 0,-0.54777 -0.310058,-0.84233 -0.310059,-0.29455 -0.935344,-0.29455 z m 0,-1.04387 h 1.00769 q 0.604615,0 0.930176,-0.24804 0.325562,-0.24805 0.325562,-0.72347 0,-0.52193 -0.330729,-0.76998 -0.325562,-0.24805 -0.976685,-0.24805 H 32.72167 Z"
         style="font-style:normal;font-variant:normal;font-weight:bold;font-stretch:normal;font-family:Roboto;-inkscape-font-specification:'Roboto Bold';letter-spacing:0.26458332px;stroke-width:0.26458332"
         id="path19" />
      <path
         d="m 37.869675,286.84489 q 0,-1.25057 0.697632,-2.04639 0.697632,-0.80098 1.932699,-0.80098 1.240234,0 1.943033,0.79582 0.7028,0.79581 0.7028,2.05155 v 0.10852 q 0,1.2609 -0.7028,2.05672 -0.697631,0.79065 -1.932698,0.79065 -1.240234,0 -1.943034,-0.79065 -0.697632,-0.79582 -0.697632,-2.05672 z m 1.503784,0.10852 q 0,0.76481 0.268718,1.2299 0.268717,0.45992 0.868164,0.45992 0.583944,0 0.852661,-0.46509 0.273885,-0.46509 0.273885,-1.22473 v -0.10852 q 0,-0.74414 -0.273885,-1.2144 -0.273885,-0.47025 -0.862996,-0.47025 -0.583944,0 -0.857829,0.47542 -0.268718,0.47026 -0.268718,1.20923 z"
         style="font-style:normal;font-variant:normal;font-weight:bold;font-stretch:normal;font-family:Roboto;-inkscape-font-specification:'Roboto Bold';letter-spacing:0.26458332px;stroke-width:0.26458332"
         id="path21" />
      <path
         d="m 46.340477,285.87854 h 0.03101 l 0.857829,-1.77767 h 1.705322 l -1.684652,2.76469 1.741496,2.8267 h -1.700155 l -0.914673,-1.85518 -0.914672,1.85518 h -1.705323 l 1.741496,-2.8267 -1.689819,-2.76469 h 1.694987 z"
         style="font-style:normal;font-variant:normal;font-weight:bold;font-stretch:normal;font-family:Roboto;-inkscape-font-specification:'Roboto Bold';letter-spacing:0.26458332px;stroke-width:0.26458332"
         id="path23" />
    </g>
    <g
       aria-label="Think, Share, Create"
       style="font-style:italic;font-variant:normal;font-weight:100;font-stretch:normal;font-size:4.93888903px;line-height:1.25;font-family:Roboto;-inkscape-font-specification:'Roboto, Light Italic';letter-spacing:0px;word-spacing:0px;fill:#ffffff;fill-opacity:1;stroke:none;stroke-width:0.26458332"
       id="text3727">
      <path
         d="m 20.974915,292.32707 h -1.066602 l -0.534679,3.5829 h -0.562239 l 0.534678,-3.5829 h -1.052821 l 0.06339,-0.42994 h 2.681662 z"
         style="font-style:italic;font-variant:normal;font-weight:normal;font-stretch:condensed;font-size:5.64444447px;font-family:Roboto;-inkscape-font-specification:'Roboto, Italic Condensed';font-variant-ligatures:normal;font-variant-caps:normal;font-variant-numeric:normal;font-feature-settings:normal;text-align:start;letter-spacing:0.26458332px;writing-mode:lr-tb;text-anchor:start;stroke-width:0.26458332"
         id="path26" />
      <path
         d="m 22.060809,293.31099 q 0.157096,-0.20946 0.35829,-0.32246 0.203949,-0.11575 0.432703,-0.11575 0.391363,0 0.581533,0.30041 0.190169,0.30041 0.09922,0.91226 l -0.272851,1.82452 h -0.56224 l 0.275608,-1.83003 q 0.06063,-0.42719 -0.03032,-0.59807 -0.08819,-0.17363 -0.322461,-0.17363 -0.187413,0 -0.344509,0.0992 -0.154341,0.0992 -0.270096,0.27285 l -0.333485,2.22966 h -0.56224 l 0.644922,-4.29948 h 0.56224 z"
         style="font-style:italic;font-variant:normal;font-weight:normal;font-stretch:condensed;font-size:5.64444447px;font-family:Roboto;-inkscape-font-specification:'Roboto, Italic Condensed';font-variant-ligatures:normal;font-variant-caps:normal;font-variant-numeric:normal;font-feature-settings:normal;text-align:start;letter-spacing:0.26458332px;writing-mode:lr-tb;text-anchor:start;stroke-width:0.26458332"
         id="path28" />
      <path
         d="m 24.759007,295.90997 h -0.562239 l 0.446484,-2.98207 h 0.56224 z m 0.564996,-3.7648 h -0.56224 l 0.07993,-0.53468 h 0.56224 z"
         style="font-style:italic;font-variant:normal;font-weight:normal;font-stretch:condensed;font-size:5.64444447px;font-family:Roboto;-inkscape-font-specification:'Roboto, Italic Condensed';font-variant-ligatures:normal;font-variant-caps:normal;font-variant-numeric:normal;font-feature-settings:normal;text-align:start;letter-spacing:0.26458332px;writing-mode:lr-tb;text-anchor:start;stroke-width:0.26458332"
         id="path30" />
      <path
         d="m 26.627627,293.35509 q 0.159853,-0.23151 0.372071,-0.35553 0.212218,-0.12678 0.457508,-0.12678 0.383095,0 0.564996,0.2949 0.184657,0.2949 0.09646,0.90675 l -0.275608,1.83554 h -0.559483 l 0.275607,-1.83279 q 0.06339,-0.43821 -0.02756,-0.60358 -0.08819,-0.16536 -0.327973,-0.16536 -0.184657,0 -0.341753,0.10473 -0.15434,0.10473 -0.270096,0.28663 l -0.330729,2.21037 H 25.69883 l 0.446484,-2.98207 h 0.51263 z"
         style="font-style:italic;font-variant:normal;font-weight:normal;font-stretch:condensed;font-size:5.64444447px;font-family:Roboto;-inkscape-font-specification:'Roboto, Italic Condensed';font-variant-ligatures:normal;font-variant-caps:normal;font-variant-numeric:normal;font-feature-settings:normal;text-align:start;letter-spacing:0.26458332px;writing-mode:lr-tb;text-anchor:start;stroke-width:0.26458332"
         id="path32" />
      <path
         d="m 29.722701,294.54296 h -0.209462 l -0.20395,1.36701 h -0.559483 l 0.644922,-4.29948 h 0.559483 l -0.377582,2.50528 h 0.198437 l 0.892969,-1.18787 h 0.63941 l 0.0083,0.0138 -1.102431,1.33945 0.76619,1.62884 h -0.653191 z"
         style="font-style:italic;font-variant:normal;font-weight:normal;font-stretch:condensed;font-size:5.64444447px;font-family:Roboto;-inkscape-font-specification:'Roboto, Italic Condensed';font-variant-ligatures:normal;font-variant-caps:normal;font-variant-numeric:normal;font-feature-settings:normal;text-align:start;letter-spacing:0.26458332px;writing-mode:lr-tb;text-anchor:start;stroke-width:0.26458332"
         id="path34" />
      <path
         d="m 32.145292,295.84383 -0.482314,0.81304 h -0.35829 l 0.292144,-0.83234 0.07441,-0.50987 h 0.551216 z"
         style="font-style:italic;font-variant:normal;font-weight:normal;font-stretch:condensed;font-size:5.64444447px;font-family:Roboto;-inkscape-font-specification:'Roboto, Italic Condensed';font-variant-ligatures:normal;font-variant-caps:normal;font-variant-numeric:normal;font-feature-settings:normal;text-align:start;letter-spacing:0.26458332px;writing-mode:lr-tb;text-anchor:start;stroke-width:0.26458332"
         id="path36" />
      <path
         d="m 36.596356,294.9922 q 0.0441,-0.31144 -0.101975,-0.49609 -0.143316,-0.18742 -0.553971,-0.36932 -0.573264,-0.20946 -0.832335,-0.49609 -0.256315,-0.28939 -0.179145,-0.80753 0.0689,-0.46302 0.418923,-0.72209 0.352778,-0.26183 0.851628,-0.26183 0.56224,0 0.87092,0.32797 0.311437,0.32522 0.214974,0.89297 l -0.0055,0.0138 h -0.540191 q 0.05237,-0.35829 -0.115755,-0.58153 -0.165365,-0.22324 -0.490582,-0.22324 -0.245291,0 -0.427192,0.15985 -0.181901,0.15985 -0.214974,0.38861 -0.04961,0.32246 0.09095,0.49609 0.143316,0.17363 0.598068,0.36656 0.556728,0.21222 0.804775,0.5016 0.248047,0.28664 0.170877,0.80478 -0.07441,0.47955 -0.429948,0.73036 -0.352778,0.2508 -0.870921,0.2508 -0.553971,0 -0.928797,-0.2949 -0.372071,-0.2949 -0.26734,-0.91777 l 0.0083,-0.0165 h 0.534678 q -0.06614,0.43822 0.157097,0.62287 0.223242,0.1819 0.559483,0.1819 0.245291,0 0.443729,-0.15709 0.198437,-0.15985 0.234266,-0.39412 z"
         style="font-style:italic;font-variant:normal;font-weight:normal;font-stretch:condensed;font-size:5.64444447px;font-family:Roboto;-inkscape-font-specification:'Roboto, Italic Condensed';font-variant-ligatures:normal;font-variant-caps:normal;font-variant-numeric:normal;font-feature-settings:normal;text-align:start;letter-spacing:0.26458332px;writing-mode:lr-tb;text-anchor:start;stroke-width:0.26458332"
         id="path38" />
      <path
         d="m 38.707509,293.31099 q 0.157097,-0.20946 0.35829,-0.32246 0.20395,-0.11575 0.432704,-0.11575 0.391363,0 0.581532,0.30041 0.19017,0.30041 0.09922,0.91226 l -0.272852,1.82452 h -0.562239 l 0.275607,-1.83003 q 0.06063,-0.42719 -0.03032,-0.59807 -0.0882,-0.17363 -0.322461,-0.17363 -0.187413,0 -0.34451,0.0992 -0.15434,0.0992 -0.270095,0.27285 l -0.333486,2.22966 h -0.562239 l 0.644922,-4.29948 h 0.562239 z"
         style="font-style:italic;font-variant:normal;font-weight:normal;font-stretch:condensed;font-size:5.64444447px;font-family:Roboto;-inkscape-font-specification:'Roboto, Italic Condensed';font-variant-ligatures:normal;font-variant-caps:normal;font-variant-numeric:normal;font-feature-settings:normal;text-align:start;letter-spacing:0.26458332px;writing-mode:lr-tb;text-anchor:start;stroke-width:0.26458332"
         id="path40" />
      <path
         d="m 42.356555,295.90997 q -0.01654,-0.12678 -0.02205,-0.23702 -0.0028,-0.11024 0.0083,-0.21773 -0.151584,0.22049 -0.369314,0.36656 -0.214974,0.14607 -0.463021,0.14607 -0.383095,0 -0.570508,-0.23702 -0.184657,-0.23978 -0.124023,-0.64768 0.06339,-0.43546 0.391362,-0.66973 0.33073,-0.23702 0.865408,-0.23702 h 0.457509 l 0.04685,-0.30592 q 0.04134,-0.28388 -0.05512,-0.42995 -0.09646,-0.14883 -0.325217,-0.14883 -0.195682,0 -0.341754,0.13505 -0.143316,0.13229 -0.173632,0.33624 l -0.534679,0.003 -0.0028,-0.0165 q 0.03583,-0.35829 0.35829,-0.61736 0.322461,-0.25907 0.790994,-0.25907 0.429948,0 0.672482,0.26182 0.242535,0.26183 0.173633,0.74139 l -0.209462,1.38355 q -0.02756,0.17639 -0.03032,0.33348 0,0.1571 0.02481,0.31695 z m -0.66697,-0.37207 q 0.220486,0 0.42168,-0.14331 0.201193,-0.14608 0.289388,-0.34451 l 0.07717,-0.52641 h -0.465777 q -0.248047,0 -0.424436,0.16812 -0.176389,0.16536 -0.209462,0.39136 -0.03307,0.21497 0.04685,0.33624 0.08268,0.11851 0.264583,0.11851 z"
         style="font-style:italic;font-variant:normal;font-weight:normal;font-stretch:condensed;font-size:5.64444447px;font-family:Roboto;-inkscape-font-specification:'Roboto, Italic Condensed';font-variant-ligatures:normal;font-variant-caps:normal;font-variant-numeric:normal;font-feature-settings:normal;text-align:start;letter-spacing:0.26458332px;writing-mode:lr-tb;text-anchor:start;stroke-width:0.26458332"
         id="path42" />
      <path
         d="m 45.396507,293.39368 -0.239779,-0.0138 q -0.170876,0 -0.30868,0.11299 -0.137804,0.11025 -0.231511,0.31144 l -0.314192,2.10564 h -0.56224 l 0.446484,-2.98207 h 0.515387 l -0.02756,0.41065 0.01654,0.008 q 0.118512,-0.22048 0.289388,-0.34726 0.173633,-0.12678 0.377583,-0.12678 0.05236,0 0.09646,0.011 0.04685,0.008 0.07993,0.022 z"
         style="font-style:italic;font-variant:normal;font-weight:normal;font-stretch:condensed;font-size:5.64444447px;font-family:Roboto;-inkscape-font-specification:'Roboto, Italic Condensed';font-variant-ligatures:normal;font-variant-caps:normal;font-variant-numeric:normal;font-feature-settings:normal;text-align:start;letter-spacing:0.26458332px;writing-mode:lr-tb;text-anchor:start;stroke-width:0.26458332"
         id="path44" />
      <path
         d="m 46.760764,295.96785 q -0.534679,0 -0.799262,-0.41065 -0.264583,-0.41342 -0.168121,-1.05834 l 0.01929,-0.12953 q 0.101975,-0.68075 0.474045,-1.08865 0.37207,-0.4079 0.884701,-0.4079 0.490581,0 0.711067,0.36656 0.220486,0.3638 0.132292,0.96462 l -0.04685,0.31419 h -1.617817 q -0.0689,0.47405 0.04961,0.74966 0.121268,0.2756 0.463021,0.2756 0.225998,0 0.416168,-0.0744 0.190169,-0.0744 0.355533,-0.21222 l 0.129536,0.34727 q -0.173633,0.15434 -0.432704,0.25907 -0.259071,0.10473 -0.570508,0.10473 z m 0.347266,-2.66513 q -0.234267,0 -0.413412,0.226 -0.179145,0.226 -0.259071,0.57878 l 0.0055,0.0138 h 1.033529 l 0.01102,-0.0634 q 0.05237,-0.34727 -0.03583,-0.55122 -0.08819,-0.20395 -0.341753,-0.20395 z"
         style="font-style:italic;font-variant:normal;font-weight:normal;font-stretch:condensed;font-size:5.64444447px;font-family:Roboto;-inkscape-font-specification:'Roboto, Italic Condensed';font-variant-ligatures:normal;font-variant-caps:normal;font-variant-numeric:normal;font-feature-settings:normal;text-align:start;letter-spacing:0.26458332px;writing-mode:lr-tb;text-anchor:start;stroke-width:0.26458332"
         id="path46" />
      <path
         d="m 49.08965,295.84383 -0.482313,0.81304 h -0.35829 l 0.292144,-0.83234 0.07441,-0.50987 h 0.551216 z"
         style="font-style:italic;font-variant:normal;font-weight:normal;font-stretch:condensed;font-size:5.64444447px;font-family:Roboto;-inkscape-font-specification:'Roboto, Italic Condensed';font-variant-ligatures:normal;font-variant-caps:normal;font-variant-numeric:normal;font-feature-settings:normal;text-align:start;letter-spacing:0.26458332px;writing-mode:lr-tb;text-anchor:start;stroke-width:0.26458332"
         id="path48" />
      <path
         d="m 54.196659,294.70281 0.0055,0.0165 q -0.08268,0.61736 -0.468533,0.93431 -0.383094,0.31419 -0.989431,0.31419 -0.595313,0 -0.915018,-0.39963 -0.316948,-0.39963 -0.209461,-1.10519 l 0.165364,-1.11345 q 0.110243,-0.73863 0.526411,-1.12448 0.416167,-0.38585 1.033528,-0.38585 0.592557,0 0.898481,0.32246 0.308681,0.32246 0.206706,0.9288 l -0.0055,0.0138 h -0.540191 q 0.06615,-0.44924 -0.09095,-0.64217 -0.15434,-0.19292 -0.534678,-0.19292 -0.355534,0 -0.606337,0.28112 -0.250803,0.27836 -0.325217,0.79099 l -0.168121,1.12172 q -0.08268,0.54571 0.07993,0.81305 0.165365,0.26733 0.54846,0.26733 0.350021,0 0.567751,-0.20119 0.21773,-0.20395 0.286632,-0.63941 z"
         style="font-style:italic;font-variant:normal;font-weight:normal;font-stretch:condensed;font-size:5.64444447px;font-family:Roboto;-inkscape-font-specification:'Roboto, Italic Condensed';font-variant-ligatures:normal;font-variant-caps:normal;font-variant-numeric:normal;font-feature-settings:normal;text-align:start;letter-spacing:0.26458332px;writing-mode:lr-tb;text-anchor:start;stroke-width:0.26458332"
         id="path50" />
      <path
         d="m 56.486957,293.39368 -0.239778,-0.0138 q -0.170877,0 -0.308681,0.11299 -0.137804,0.11025 -0.23151,0.31144 l -0.314193,2.10564 h -0.56224 l 0.446485,-2.98207 h 0.515386 l -0.02756,0.41065 0.01654,0.008 q 0.118511,-0.22048 0.289388,-0.34726 0.173632,-0.12678 0.377582,-0.12678 0.05237,0 0.09646,0.011 0.04685,0.008 0.07993,0.022 z"
         style="font-style:italic;font-variant:normal;font-weight:normal;font-stretch:condensed;font-size:5.64444447px;font-family:Roboto;-inkscape-font-specification:'Roboto, Italic Condensed';font-variant-ligatures:normal;font-variant-caps:normal;font-variant-numeric:normal;font-feature-settings:normal;text-align:start;letter-spacing:0.26458332px;writing-mode:lr-tb;text-anchor:start;stroke-width:0.26458332"
         id="path52" />
      <path
         d="m 57.851215,295.96785 q -0.534679,0 -0.799263,-0.41065 -0.264583,-0.41342 -0.16812,-1.05834 l 0.01929,-0.12953 q 0.101975,-0.68075 0.474045,-1.08865 0.372071,-0.4079 0.884701,-0.4079 0.490582,0 0.711068,0.36656 0.220486,0.3638 0.132291,0.96462 l -0.04685,0.31419 h -1.617817 q -0.0689,0.47405 0.04961,0.74966 0.121267,0.2756 0.46302,0.2756 0.225999,0 0.416168,-0.0744 0.190169,-0.0744 0.355534,-0.21222 l 0.129535,0.34727 q -0.173632,0.15434 -0.432704,0.25907 -0.259071,0.10473 -0.570507,0.10473 z m 0.347265,-2.66513 q -0.234266,0 -0.413411,0.226 -0.179145,0.226 -0.259071,0.57878 l 0.0055,0.0138 h 1.033528 l 0.01102,-0.0634 q 0.05237,-0.34727 -0.03583,-0.55122 -0.08819,-0.20395 -0.341754,-0.20395 z"
         style="font-style:italic;font-variant:normal;font-weight:normal;font-stretch:condensed;font-size:5.64444447px;font-family:Roboto;-inkscape-font-specification:'Roboto, Italic Condensed';font-variant-ligatures:normal;font-variant-caps:normal;font-variant-numeric:normal;font-feature-settings:normal;text-align:start;letter-spacing:0.26458332px;writing-mode:lr-tb;text-anchor:start;stroke-width:0.26458332"
         id="path54" />
      <path
         d="m 61.16402,295.90997 q -0.01654,-0.12678 -0.02205,-0.23702 -0.0028,-0.11024 0.0083,-0.21773 -0.151585,0.22049 -0.369315,0.36656 -0.214974,0.14607 -0.463021,0.14607 -0.383094,0 -0.570507,-0.23702 -0.184657,-0.23978 -0.124024,-0.64768 0.06339,-0.43546 0.391363,-0.66973 0.330729,-0.23702 0.865408,-0.23702 h 0.457509 l 0.04685,-0.30592 q 0.04134,-0.28388 -0.05512,-0.42995 -0.09646,-0.14883 -0.325217,-0.14883 -0.195682,0 -0.341754,0.13505 -0.143316,0.13229 -0.173633,0.33624 l -0.534679,0.003 -0.0028,-0.0165 q 0.03583,-0.35829 0.35829,-0.61736 0.322461,-0.25907 0.790994,-0.25907 0.429948,0 0.672483,0.26182 0.242535,0.26183 0.173633,0.74139 l -0.209462,1.38355 q -0.02756,0.17639 -0.03032,0.33348 0,0.1571 0.02481,0.31695 z m -0.666971,-0.37207 q 0.220487,0 0.42168,-0.14331 0.201194,-0.14608 0.289388,-0.34451 l 0.07717,-0.52641 H 60.81951 q -0.248046,0 -0.424435,0.16812 -0.176389,0.16536 -0.209462,0.39136 -0.03307,0.21497 0.04685,0.33624 0.08268,0.11851 0.264583,0.11851 z"
         style="font-style:italic;font-variant:normal;font-weight:normal;font-stretch:condensed;font-size:5.64444447px;font-family:Roboto;-inkscape-font-specification:'Roboto, Italic Condensed';font-variant-ligatures:normal;font-variant-caps:normal;font-variant-numeric:normal;font-feature-settings:normal;text-align:start;letter-spacing:0.26458332px;writing-mode:lr-tb;text-anchor:start;stroke-width:0.26458332"
         id="path56" />
      <path
         d="m 63.826389,292.18651 -0.112999,0.74139 h 0.465777 l -0.05788,0.39963 h -0.465777 l -0.267339,1.77491 q -0.03859,0.24254 0.01654,0.33624 0.05788,0.091 0.176389,0.091 0.04685,0 0.09095,-0.008 0.0441,-0.008 0.09922,-0.0248 v 0.38585 q -0.08544,0.0386 -0.187414,0.0606 -0.101974,0.0248 -0.206705,0.0248 -0.311437,0 -0.465777,-0.20946 -0.154341,-0.20946 -0.08544,-0.65595 l 0.26734,-1.77491 h -0.394119 l 0.05788,-0.39963 h 0.394119 l 0.112999,-0.74139 z"
         style="font-style:italic;font-variant:normal;font-weight:normal;font-stretch:condensed;font-size:5.64444447px;font-family:Roboto;-inkscape-font-specification:'Roboto, Italic Condensed';font-variant-ligatures:normal;font-variant-caps:normal;font-variant-numeric:normal;font-feature-settings:normal;text-align:start;letter-spacing:0.26458332px;writing-mode:lr-tb;text-anchor:start;stroke-width:0.26458332"
         id="path58" />
      <path
         d="m 65.579253,295.96785 q -0.534679,0 -0.799262,-0.41065 -0.264583,-0.41342 -0.168121,-1.05834 l 0.01929,-0.12953 q 0.101975,-0.68075 0.474045,-1.08865 0.37207,-0.4079 0.884701,-0.4079 0.490581,0 0.711067,0.36656 0.220487,0.3638 0.132292,0.96462 l -0.04685,0.31419 h -1.617817 q -0.0689,0.47405 0.04961,0.74966 0.121268,0.2756 0.463021,0.2756 0.225998,0 0.416168,-0.0744 0.190169,-0.0744 0.355534,-0.21222 l 0.129535,0.34727 q -0.173633,0.15434 -0.432704,0.25907 -0.259071,0.10473 -0.570508,0.10473 z m 0.347266,-2.66513 q -0.234267,0 -0.413412,0.226 -0.179144,0.226 -0.259071,0.57878 l 0.0055,0.0138 h 1.033529 l 0.01102,-0.0634 q 0.05237,-0.34727 -0.03583,-0.55122 -0.08819,-0.20395 -0.341753,-0.20395 z"
         style="font-style:italic;font-variant:normal;font-weight:normal;font-stretch:condensed;font-size:5.64444447px;font-family:Roboto;-inkscape-font-specification:'Roboto, Italic Condensed';font-variant-ligatures:normal;font-variant-caps:normal;font-variant-numeric:normal;font-feature-settings:normal;text-align:start;letter-spacing:0.26458332px;writing-mode:lr-tb;text-anchor:start;stroke-width:0.26458332"
         id="path60" />
    </g>
  </g>
</svg>
